<mxfile host="65bd71144e">
    <diagram id="Z97ONl3FVwGXgPEqMipa" name="Page-1">
        <mxGraphModel dx="1039" dy="599" grid="1" gridSize="10" guides="1" tooltips="1" connect="1" arrows="1" fold="1" page="1" pageScale="1" pageWidth="850" pageHeight="1100" math="0" shadow="0">
            <root>
                <mxCell id="0"/>
                <mxCell id="1" parent="0"/>
                <mxCell id="6" style="edgeStyle=none;html=1;rounded=1;" parent="1" edge="1">
                    <mxGeometry relative="1" as="geometry">
                        <mxPoint x="550" y="290" as="sourcePoint"/>
                        <mxPoint x="450" y="340" as="targetPoint"/>
                        <Array as="points">
                            <mxPoint x="450" y="340"/>
                        </Array>
                    </mxGeometry>
                </mxCell>
                <mxCell id="21" style="edgeStyle=none;html=1;exitX=0.5;exitY=1;exitDx=0;exitDy=0;entryX=0.5;entryY=0;entryDx=0;entryDy=0;entryPerimeter=0;rounded=1;" parent="1" source="3" target="20" edge="1">
                    <mxGeometry relative="1" as="geometry"/>
                </mxCell>
                <mxCell id="3" value="&lt;b&gt;Système de Gestion des&amp;nbsp; Pays Africains et Villes&amp;nbsp;&amp;nbsp;&lt;/b&gt;" style="rounded=1;whiteSpace=wrap;html=1;fillColor=#f5f5f5;fontColor=#333333;strokeColor=#666666;" parent="1" vertex="1">
                    <mxGeometry x="490" y="250" width="120" height="60" as="geometry"/>
                </mxCell>
                <mxCell id="12" style="edgeStyle=none;html=1;entryX=0.5;entryY=0;entryDx=0;entryDy=0;rounded=1;" parent="1" target="23" edge="1">
                    <mxGeometry relative="1" as="geometry">
                        <mxPoint x="450" y="420" as="sourcePoint"/>
                        <mxPoint x="420" y="460" as="targetPoint"/>
                    </mxGeometry>
                </mxCell>
                <mxCell id="18" style="edgeStyle=none;html=1;entryX=0;entryY=0.5;entryDx=0;entryDy=0;rounded=1;" parent="1" target="27" edge="1">
                    <mxGeometry relative="1" as="geometry">
                        <mxPoint x="450" y="420" as="sourcePoint"/>
                        <mxPoint x="550" y="490" as="targetPoint"/>
                    </mxGeometry>
                </mxCell>
                <mxCell id="16" style="edgeStyle=none;html=1;rounded=1;" parent="1" edge="1">
                    <mxGeometry relative="1" as="geometry">
                        <mxPoint x="630" y="420" as="sourcePoint"/>
                        <mxPoint x="638.5714285714284" y="460" as="targetPoint"/>
                    </mxGeometry>
                </mxCell>
                <mxCell id="31" style="edgeStyle=none;html=1;rounded=1;" parent="1" target="25" edge="1">
                    <mxGeometry relative="1" as="geometry">
                        <mxPoint x="450" y="420" as="sourcePoint"/>
                    </mxGeometry>
                </mxCell>
                <mxCell id="32" style="edgeStyle=none;html=1;entryX=0.5;entryY=0;entryDx=0;entryDy=0;rounded=1;" parent="1" target="24" edge="1">
                    <mxGeometry relative="1" as="geometry">
                        <mxPoint x="450" y="420" as="sourcePoint"/>
                    </mxGeometry>
                </mxCell>
                <mxCell id="19" value="Administrateur&lt;br&gt;" style="shape=umlActor;verticalLabelPosition=bottom;verticalAlign=top;html=1;outlineConnect=0;rounded=1;" parent="1" vertex="1">
                    <mxGeometry x="430" y="340" width="30" height="60" as="geometry"/>
                </mxCell>
                <mxCell id="20" value="Utilisateur" style="shape=umlActor;verticalLabelPosition=bottom;verticalAlign=top;html=1;outlineConnect=0;rounded=1;" parent="1" vertex="1">
                    <mxGeometry x="610" y="340" width="30" height="60" as="geometry"/>
                </mxCell>
                <mxCell id="23" value="&lt;span style=&quot;color: rgb(51, 51, 51);&quot;&gt;Modifier un pays&lt;/span&gt;" style="ellipse;whiteSpace=wrap;html=1;fillColor=#f5f5f5;fontColor=#333333;strokeColor=#666666;rounded=1;" parent="1" vertex="1">
                    <mxGeometry x="230" y="520" width="120" height="80" as="geometry"/>
                </mxCell>
                <mxCell id="24" value="&lt;span style=&quot;color: rgb(51, 51, 51);&quot;&gt;Ajouter un pays&lt;/span&gt;" style="ellipse;whiteSpace=wrap;html=1;fillColor=#f5f5f5;fontColor=#333333;strokeColor=#666666;rounded=1;" parent="1" vertex="1">
                    <mxGeometry x="80" y="520" width="120" height="80" as="geometry"/>
                </mxCell>
                <mxCell id="25" value="&lt;span style=&quot;color: rgb(51, 51, 51);&quot;&gt;Supprimer un pays&amp;nbsp;&lt;/span&gt;" style="ellipse;whiteSpace=wrap;html=1;fillColor=#f5f5f5;fontColor=#333333;strokeColor=#666666;rounded=1;" parent="1" vertex="1">
                    <mxGeometry x="380" y="520" width="120" height="80" as="geometry"/>
                </mxCell>
                <mxCell id="27" value="&lt;span style=&quot;color: rgb(51, 51, 51);&quot;&gt;Afficher les pays africains avec leurs détails&amp;nbsp;&amp;nbsp;&lt;/span&gt;" style="ellipse;whiteSpace=wrap;html=1;fillColor=#f5f5f5;fontColor=#333333;strokeColor=#666666;rounded=1;" parent="1" vertex="1">
                    <mxGeometry x="590" y="460" width="120" height="80" as="geometry"/>
                </mxCell>
                <mxCell id="36" value="&lt;h1&gt;Diagramme de cas d’utilisation :&lt;/h1&gt;" style="text;html=1;strokeColor=none;fillColor=none;spacing=5;spacingTop=-20;whiteSpace=wrap;overflow=hidden;rounded=1;" parent="1" vertex="1">
                    <mxGeometry x="150" y="170" width="420" height="120" as="geometry"/>
                </mxCell>
            </root>
        </mxGraphModel>
    </diagram>
</mxfile>